# xmcd CD database file
#
# Track frame offsets:
#	150
#	16330
#	35862
#	53412
#	69527
#	96702
#	118690
#	149257
#	166305
#	187860
#
# Disc length: 2758 seconds
#
# Revision: 0
# Processed by: cddbd v1.5.1PL0 Copyright (c) Steve Scherf et al.
# Submitted via: CDex 1.51
#
DISCID=890ac40a
DTITLE=シガキマサキ - 黄昏フリーク
DYEAR=2004
DGENRE=Rock
TTITLE0=ハロー
TTITLE1=大丈夫
TTITLE2=文字
TTITLE3=Call my name
TTITLE4=青い日々
TTITLE5=8月
TTITLE6=アマゾラバイバイ
TTITLE7=春の色
TTITLE8=大丈夫(アルバムバージョン)
TTITLE9=彼と彼女
EXTD=YEAR: 2004
EXTT0=
EXTT1=
EXTT2=
EXTT3=
EXTT4=
EXTT5=
EXTT6=
EXTT7=
EXTT8=
EXTT9=
PLAYORDER=
